# Blender 5.0.0
# www.blender.org
mtllib golfball.mtl
o golf_ball
v -0.024514 0.014067 -0.019842
v 0.024514 0.014067 -0.019842
v -0.024514 0.062337 -0.028427
v 0.024514 0.062337 -0.028427
v -0.024514 0.022652 0.028427
v 0.024514 0.022652 0.028427
v -0.024514 0.070922 0.019842
v 0.024514 0.070922 0.019842
v 0.000000 0.035060 -0.041803
v 0.000000 0.049930 0.041803
v 0.000000 0.000692 0.007435
v 0.042459 0.042495 -0.000000
v 0.000000 0.084297 -0.007435
v -0.042459 0.042495 -0.000000
v -0.030023 0.037237 -0.029559
v 0.000000 0.066796 -0.034816
v 0.030023 0.037237 -0.029559
v 0.000000 0.007678 -0.024302
v 0.000000 0.018193 0.034816
v 0.030023 0.047752 0.029559
v 0.000000 0.077311 0.024302
v -0.030023 0.047752 0.029559
v 0.030023 0.012936 0.005257
v -0.030023 0.012936 0.005257
v 0.030023 0.072054 -0.005257
v -0.030023 0.072054 -0.005257
v -0.026308 0.017747 -0.022320
v -0.028220 0.023286 -0.025247
v -0.029551 0.029936 -0.027781
v -0.026308 0.058029 -0.029484
v -0.028220 0.051820 -0.030322
v -0.029551 0.044704 -0.030408
v -0.020457 0.063790 -0.030509
v -0.014491 0.065337 -0.032726
v -0.007500 0.066414 -0.034269
v 0.020457 0.063790 -0.030509
v 0.014491 0.065337 -0.032726
v 0.007500 0.066414 -0.034269
v 0.026308 0.058029 -0.029484
v 0.028220 0.051820 -0.030322
v 0.029551 0.044704 -0.030408
v 0.026308 0.017747 -0.022320
v 0.028220 0.023286 -0.025247
v 0.029551 0.029936 -0.027781
v 0.020457 0.011986 -0.021295
v 0.014491 0.009769 -0.022843
v 0.007500 0.008226 -0.023920
v -0.020457 0.011986 -0.021295
v -0.014491 0.009769 -0.022843
v -0.007500 0.008226 -0.023920
v -0.020457 0.021200 0.030509
v -0.014491 0.019652 0.032726
v -0.007500 0.018575 0.034269
v 0.020457 0.021200 0.030509
v 0.014491 0.019652 0.032726
v 0.007500 0.018575 0.034269
v 0.026308 0.026961 0.029484
v 0.028220 0.033170 0.030322
v 0.029551 0.040285 0.030407
v 0.026308 0.067242 0.022320
v 0.028220 0.061703 0.025247
v 0.029551 0.055053 0.027781
v 0.020457 0.073003 0.021295
v 0.014491 0.075221 0.022843
v 0.007500 0.076763 0.023920
v -0.020457 0.073003 0.021295
v -0.014491 0.075221 0.022843
v -0.007500 0.076763 0.023920
v -0.026308 0.067242 0.022320
v -0.028220 0.061703 0.025247
v -0.029551 0.055053 0.027781
v -0.026308 0.026961 0.029484
v -0.028220 0.033170 0.030322
v -0.029551 0.040285 0.030408
v 0.026308 0.013011 -0.015534
v 0.028220 0.012173 -0.009325
v 0.029551 0.012087 -0.002209
v 0.026308 0.020175 0.024748
v 0.028220 0.017248 0.019208
v 0.029551 0.014714 0.012559
v -0.026308 0.020175 0.024748
v -0.028220 0.017248 0.019208
v -0.029551 0.014714 0.012559
v -0.026308 0.013011 -0.015534
v -0.028220 0.012173 -0.009325
v -0.029551 0.012087 -0.002209
v 0.026308 0.064814 -0.024748
v 0.028220 0.067742 -0.019208
v 0.029551 0.070276 -0.012559
v 0.026308 0.071979 0.015534
v 0.028220 0.072816 0.009325
v 0.029551 0.072902 0.002209
v -0.026308 0.064814 -0.024748
v -0.028220 0.067742 -0.019208
v -0.029551 0.070276 -0.012559
v -0.026308 0.071979 0.015534
v -0.028220 0.072816 0.009325
v -0.029551 0.072902 0.002209
v -0.023860 0.036345 -0.034578
v -0.016659 0.035656 -0.038451
v -0.008585 0.035213 -0.040939
v 0.000000 0.059837 -0.038756
v -0.000000 0.052058 -0.041368
v -0.000000 0.043665 -0.042443
v 0.023860 0.036345 -0.034578
v 0.016659 0.035656 -0.038451
v 0.008585 0.035213 -0.040939
v 0.000000 0.012853 -0.030399
v -0.000000 0.019254 -0.035533
v -0.000000 0.026761 -0.039436
v 0.000000 0.025153 0.038756
v 0.000000 0.032931 0.041368
v 0.000000 0.041324 0.042443
v 0.023860 0.048644 0.034577
v 0.016659 0.049333 0.038451
v 0.008585 0.049776 0.040939
v 0.000000 0.072136 0.030399
v 0.000000 0.065735 0.035533
v 0.000000 0.058228 0.039436
v -0.023860 0.048644 0.034577
v -0.016659 0.049333 0.038451
v -0.008585 0.049776 0.040939
v 0.000000 0.003739 -0.017342
v 0.000000 0.001127 -0.009563
v 0.000000 0.000052 -0.001171
v 0.023860 0.007917 0.006150
v 0.016659 0.004044 0.006839
v 0.008585 0.001555 0.007281
v 0.000000 0.012095 0.029642
v 0.000000 0.006961 0.023241
v 0.000000 0.003058 0.015733
v -0.023860 0.007917 0.006150
v -0.016659 0.004044 0.006839
v -0.008585 0.001555 0.007281
v 0.035120 0.038317 -0.023492
v 0.039054 0.039577 -0.016402
v 0.041582 0.040991 -0.008452
v 0.035120 0.065986 -0.004178
v 0.039054 0.058897 -0.002917
v 0.041582 0.050947 -0.001503
v 0.035120 0.046673 0.023492
v 0.039054 0.045412 0.016402
v 0.041582 0.043998 0.008452
v 0.035120 0.019003 0.004178
v 0.039054 0.026093 0.002917
v 0.041582 0.034043 0.001503
v 0.000000 0.072894 -0.029642
v 0.000000 0.078028 -0.023241
v 0.000000 0.081931 -0.015733
v -0.023860 0.077072 -0.006150
v -0.016659 0.080945 -0.006839
v -0.008585 0.083434 -0.007281
v 0.000000 0.081250 0.017342
v 0.000000 0.083862 0.009563
v 0.000000 0.084937 0.001171
v 0.023860 0.077072 -0.006150
v 0.016659 0.080945 -0.006839
v 0.008585 0.083434 -0.007281
v -0.035120 0.038317 -0.023492
v -0.039054 0.039577 -0.016402
v -0.041582 0.040991 -0.008452
v -0.035120 0.019003 0.004178
v -0.039054 0.026093 0.002917
v -0.041582 0.034043 0.001503
v -0.035120 0.046673 0.023492
v -0.039054 0.045412 0.016402
v -0.041582 0.043998 0.008452
v -0.035120 0.065986 -0.004178
v -0.039054 0.058897 -0.002917
v -0.041582 0.050947 -0.001503
v -0.021165 0.016384 -0.025943
v -0.022459 0.022085 -0.029695
v -0.023463 0.028882 -0.032663
v -0.014894 0.014637 -0.028370
v -0.015666 0.020728 -0.032917
v -0.016352 0.027855 -0.036346
v -0.007683 0.013345 -0.029900
v -0.008049 0.019680 -0.034892
v -0.008411 0.027077 -0.038656
v -0.021165 0.058059 -0.033355
v -0.014894 0.058862 -0.036236
v -0.007683 0.059547 -0.038117
v -0.022459 0.051413 -0.034911
v -0.015666 0.051576 -0.038404
v -0.008049 0.051879 -0.040619
v -0.023463 0.044010 -0.035354
v -0.016352 0.043704 -0.039165
v -0.008411 0.043638 -0.041602
v 0.021165 0.058059 -0.033355
v 0.022459 0.051413 -0.034911
v 0.023463 0.044010 -0.035354
v 0.014894 0.058862 -0.036236
v 0.015666 0.051576 -0.038404
v 0.016352 0.043704 -0.039165
v 0.007683 0.059547 -0.038117
v 0.008049 0.051879 -0.040619
v 0.008411 0.043638 -0.041602
v 0.021165 0.016384 -0.025943
v 0.014894 0.014637 -0.028370
v 0.007683 0.013345 -0.029900
v 0.022459 0.022085 -0.029695
v 0.015666 0.020728 -0.032917
v 0.008049 0.019680 -0.034892
v 0.023463 0.028882 -0.032663
v 0.016352 0.027855 -0.036346
v 0.008411 0.027077 -0.038656
v -0.021165 0.026930 0.033355
v -0.014894 0.026128 0.036236
v -0.007683 0.025442 0.038117
v -0.022459 0.033576 0.034911
v -0.015666 0.033413 0.038404
v -0.008049 0.033110 0.040619
v -0.023463 0.040979 0.035354
v -0.016352 0.041285 0.039165
v -0.008411 0.041351 0.041602
v 0.021165 0.026930 0.033355
v 0.022459 0.033576 0.034911
v 0.023463 0.040979 0.035354
v 0.014894 0.026128 0.036236
v 0.015666 0.033413 0.038404
v 0.016352 0.041285 0.039165
v 0.007683 0.025442 0.038117
v 0.008049 0.033110 0.040619
v 0.008411 0.041351 0.041602
v 0.021165 0.068605 0.025943
v 0.014894 0.070352 0.028370
v 0.007683 0.071644 0.029900
v 0.022459 0.062904 0.029695
v 0.015666 0.064261 0.032917
v 0.008049 0.065309 0.034892
v 0.023463 0.056108 0.032663
v 0.016352 0.057134 0.036346
v 0.008411 0.057912 0.038656
v -0.021165 0.068605 0.025943
v -0.022459 0.062904 0.029695
v -0.023463 0.056108 0.032663
v -0.014894 0.070352 0.028370
v -0.015666 0.064261 0.032917
v -0.016352 0.057134 0.036346
v -0.007683 0.071644 0.029900
v -0.008049 0.065309 0.034892
v -0.008411 0.057912 0.038656
v -0.021165 0.009140 -0.015564
v -0.014894 0.006259 -0.016367
v -0.007683 0.004377 -0.017052
v -0.022459 0.007584 -0.008919
v -0.015666 0.004091 -0.009082
v -0.008049 0.001876 -0.009385
v -0.023463 0.007141 -0.001516
v -0.016352 0.003330 -0.001210
v -0.008411 0.000893 -0.001143
v 0.021165 0.009140 -0.015564
v 0.022459 0.007584 -0.008919
v 0.023463 0.007141 -0.001516
v 0.014894 0.006259 -0.016367
v 0.015666 0.004091 -0.009082
v 0.016352 0.003330 -0.001210
v 0.007683 0.004377 -0.017052
v 0.008049 0.001876 -0.009385
v 0.008411 0.000893 -0.001143
v 0.021165 0.016552 0.026111
v 0.014894 0.014125 0.027858
v 0.007683 0.012595 0.029150
v 0.022459 0.012800 0.020409
v 0.015666 0.009577 0.021766
v 0.008049 0.007603 0.022815
v 0.023463 0.009831 0.013613
v 0.016352 0.006149 0.014640
v 0.008411 0.003838 0.015418
v -0.021165 0.016552 0.026111
v -0.022459 0.012800 0.020409
v -0.023463 0.009831 0.013613
v -0.014894 0.014125 0.027858
v -0.015666 0.009577 0.021766
v -0.016352 0.006149 0.014640
v -0.007683 0.012595 0.029150
v -0.008049 0.007603 0.022815
v -0.008411 0.003838 0.015418
v 0.030114 0.017951 -0.017131
v 0.032810 0.023898 -0.019504
v 0.034542 0.030822 -0.021756
v 0.032810 0.017774 -0.010731
v 0.036220 0.024327 -0.012681
v 0.038348 0.031707 -0.014690
v 0.034542 0.018048 -0.003456
v 0.038348 0.024986 -0.005061
v 0.040759 0.032741 -0.006808
v 0.030114 0.059626 -0.024544
v 0.032810 0.061999 -0.018597
v 0.034542 0.064250 -0.011673
v 0.032810 0.053226 -0.024721
v 0.036220 0.055175 -0.018167
v 0.038348 0.057185 -0.010788
v 0.034542 0.045951 -0.024446
v 0.038348 0.047556 -0.017509
v 0.040759 0.049302 -0.009753
v 0.030114 0.067038 0.017131
v 0.032810 0.061091 0.019504
v 0.034542 0.054168 0.021756
v 0.032810 0.067215 0.010731
v 0.036220 0.060662 0.012681
v 0.038348 0.053283 0.014690
v 0.034542 0.066941 0.003456
v 0.038348 0.060004 0.005061
v 0.040759 0.052248 0.006808
v 0.030114 0.025363 0.024544
v 0.032810 0.022990 0.018597
v 0.034542 0.020739 0.011673
v 0.032810 0.031764 0.024721
v 0.036220 0.029814 0.018167
v 0.038348 0.027805 0.010788
v 0.034542 0.039039 0.024446
v 0.038348 0.037433 0.017509
v 0.040759 0.035687 0.009753
v 0.021165 0.068438 -0.026111
v 0.014894 0.070865 -0.027858
v 0.007683 0.072395 -0.029150
v 0.022459 0.072190 -0.020409
v 0.015666 0.075412 -0.021766
v 0.008049 0.077387 -0.022815
v 0.023463 0.075158 -0.013613
v 0.016352 0.078841 -0.014640
v 0.008411 0.081151 -0.015418
v -0.021165 0.068438 -0.026111
v -0.022459 0.072190 -0.020409
v -0.023463 0.075158 -0.013613
v -0.014894 0.070865 -0.027858
v -0.015666 0.075412 -0.021766
v -0.016352 0.078841 -0.014640
v -0.007683 0.072395 -0.029150
v -0.008049 0.077387 -0.022815
v -0.008411 0.081151 -0.015418
v -0.021165 0.075850 0.015564
v -0.014894 0.078730 0.016367
v -0.007683 0.080612 0.017052
v -0.022459 0.077406 0.008919
v -0.015666 0.080898 0.009082
v -0.008049 0.083114 0.009385
v -0.023463 0.077849 0.001516
v -0.016352 0.081660 0.001210
v -0.008411 0.084096 0.001143
v 0.021165 0.075850 0.015564
v 0.022459 0.077406 0.008919
v 0.023463 0.077849 0.001516
v 0.014894 0.078730 0.016367
v 0.015666 0.080898 0.009082
v 0.016352 0.081660 0.001210
v 0.007683 0.080612 0.017052
v 0.008049 0.083114 0.009385
v 0.008411 0.084096 0.001143
v -0.030114 0.059626 -0.024544
v -0.032810 0.053226 -0.024721
v -0.034542 0.045951 -0.024446
v -0.032810 0.061999 -0.018597
v -0.036220 0.055175 -0.018167
v -0.038348 0.047556 -0.017509
v -0.034542 0.064250 -0.011673
v -0.038348 0.057185 -0.010788
v -0.040759 0.049302 -0.009753
v -0.030114 0.017951 -0.017131
v -0.032810 0.017774 -0.010731
v -0.034542 0.018048 -0.003456
v -0.032810 0.023898 -0.019504
v -0.036220 0.024327 -0.012681
v -0.038348 0.024986 -0.005061
v -0.034542 0.030822 -0.021756
v -0.038348 0.031707 -0.014690
v -0.040759 0.032741 -0.006808
v -0.030114 0.025363 0.024544
v -0.032810 0.031764 0.024721
v -0.034542 0.039039 0.024446
v -0.032810 0.022990 0.018597
v -0.036220 0.029814 0.018167
v -0.038348 0.037433 0.017509
v -0.034542 0.020739 0.011673
v -0.038348 0.027805 0.010788
v -0.040759 0.035687 0.009753
v -0.030114 0.067038 0.017131
v -0.032810 0.067215 0.010731
v -0.034542 0.066941 0.003456
v -0.032810 0.061091 0.019504
v -0.036220 0.060662 0.012681
v -0.038348 0.060004 0.005061
v -0.034542 0.054168 0.021756
v -0.038348 0.053283 0.014690
v -0.040759 0.052248 0.006808
vn -0.5774 -0.6695 -0.4673
vn -0.6227 -0.5756 -0.5301
vn -0.4933 -0.6112 -0.6190
vn -0.4739 -0.7221 -0.5040
vn -0.6658 -0.4481 -0.5966
vn -0.5267 -0.4769 -0.7037
vn -0.6962 -0.2939 -0.6549
vn -0.5505 -0.3189 -0.7715
vn -0.7071 -0.1238 -0.6962
vn -0.5596 -0.1451 -0.8159
vn -0.3463 -0.6545 -0.6721
vn -0.3367 -0.7721 -0.5389
vn -0.3656 -0.5098 -0.7788
vn -0.3821 -0.3432 -0.8580
vn -0.3890 -0.1613 -0.9070
vn -0.1789 -0.6848 -0.7064
vn -0.1747 -0.8074 -0.5636
vn -0.1877 -0.5347 -0.8240
vn -0.1960 -0.3612 -0.9117
vn -0.1997 -0.1716 -0.9647
vn -0.0000 -0.6961 -0.7179
vn -0.0000 -0.8200 -0.5724
vn -0.0000 -0.5443 -0.8389
vn -0.0000 -0.3682 -0.9298
vn -0.0000 -0.1751 -0.9845
vn -0.6227 0.3575 -0.6960
vn -0.5774 0.4673 -0.6695
vn -0.4739 0.5040 -0.7221
vn -0.4933 0.3603 -0.7917
vn -0.3367 0.5389 -0.7721
vn -0.3463 0.3826 -0.8566
vn -0.1747 0.5636 -0.8074
vn -0.1789 0.3992 -0.8992
vn -0.0000 0.5724 -0.8200
vn -0.0000 0.4059 -0.9139
vn -0.6658 0.2149 -0.7145
vn -0.5267 0.2050 -0.8250
vn -0.3656 0.2100 -0.9068
vn -0.1877 0.2178 -0.9578
vn -0.0000 0.2217 -0.9751
vn -0.6962 0.0501 -0.7161
vn -0.5505 0.0334 -0.8342
vn -0.3821 0.0263 -0.9237
vn -0.1960 0.0247 -0.9803
vn -0.0000 0.0250 -0.9997
vn 0.5774 0.4673 -0.6695
vn 0.6227 0.3575 -0.6960
vn 0.4933 0.3603 -0.7917
vn 0.4739 0.5040 -0.7221
vn 0.6658 0.2149 -0.7145
vn 0.5267 0.2050 -0.8250
vn 0.6962 0.0501 -0.7161
vn 0.5505 0.0334 -0.8342
vn 0.7071 -0.1238 -0.6962
vn 0.5596 -0.1451 -0.8159
vn 0.3463 0.3826 -0.8566
vn 0.3367 0.5389 -0.7721
vn 0.3656 0.2100 -0.9068
vn 0.3821 0.0263 -0.9237
vn 0.3890 -0.1613 -0.9070
vn 0.1789 0.3992 -0.8992
vn 0.1747 0.5636 -0.8074
vn 0.1877 0.2178 -0.9578
vn 0.1960 0.0247 -0.9803
vn 0.1997 -0.1716 -0.9647
vn 0.6227 -0.5756 -0.5301
vn 0.5774 -0.6695 -0.4673
vn 0.4739 -0.7221 -0.5040
vn 0.4933 -0.6112 -0.6190
vn 0.3367 -0.7721 -0.5389
vn 0.3463 -0.6545 -0.6721
vn 0.1747 -0.8074 -0.5636
vn 0.1789 -0.6848 -0.7064
vn 0.6658 -0.4481 -0.5966
vn 0.5267 -0.4769 -0.7037
vn 0.3656 -0.5098 -0.7788
vn 0.1877 -0.5347 -0.8240
vn 0.6962 -0.2939 -0.6549
vn 0.5505 -0.3189 -0.7715
vn 0.3821 -0.3432 -0.8580
vn 0.1960 -0.3612 -0.9117
vn -0.5774 -0.4673 0.6695
vn -0.4739 -0.5040 0.7221
vn -0.4933 -0.3603 0.7917
vn -0.6227 -0.3575 0.6960
vn -0.3367 -0.5389 0.7721
vn -0.3463 -0.3826 0.8566
vn -0.1747 -0.5636 0.8074
vn -0.1789 -0.3992 0.8992
vn -0.0000 -0.5724 0.8200
vn -0.0000 -0.4059 0.9139
vn -0.5267 -0.2050 0.8250
vn -0.6658 -0.2149 0.7145
vn -0.3656 -0.2100 0.9068
vn -0.1877 -0.2178 0.9578
vn -0.0000 -0.2217 0.9751
vn -0.5505 -0.0334 0.8342
vn -0.6962 -0.0501 0.7161
vn -0.3821 -0.0263 0.9237
vn -0.1960 -0.0247 0.9803
vn -0.0000 -0.0250 0.9997
vn -0.5596 0.1451 0.8159
vn -0.7071 0.1238 0.6962
vn -0.3890 0.1613 0.9070
vn -0.1997 0.1716 0.9647
vn -0.0000 0.1751 0.9845
vn 0.4739 -0.5040 0.7221
vn 0.5774 -0.4673 0.6695
vn 0.6227 -0.3575 0.6960
vn 0.4933 -0.3603 0.7917
vn 0.6658 -0.2149 0.7145
vn 0.5267 -0.2050 0.8250
vn 0.6962 -0.0501 0.7161
vn 0.5505 -0.0334 0.8342
vn 0.7071 0.1238 0.6962
vn 0.5596 0.1451 0.8159
vn 0.3367 -0.5389 0.7721
vn 0.3463 -0.3826 0.8566
vn 0.3656 -0.2100 0.9068
vn 0.3821 -0.0263 0.9237
vn 0.3890 0.1613 0.9070
vn 0.1747 -0.5636 0.8074
vn 0.1789 -0.3992 0.8992
vn 0.1877 -0.2178 0.9578
vn 0.1960 -0.0247 0.9803
vn 0.1997 0.1716 0.9647
vn 0.5774 0.6695 0.4673
vn 0.4739 0.7221 0.5040
vn 0.4933 0.6112 0.6190
vn 0.6227 0.5756 0.5301
vn 0.3367 0.7721 0.5389
vn 0.3463 0.6545 0.6721
vn 0.1747 0.8074 0.5636
vn 0.1789 0.6848 0.7064
vn -0.0000 0.8200 0.5724
vn -0.0000 0.6961 0.7179
vn 0.5267 0.4769 0.7037
vn 0.6658 0.4481 0.5966
vn 0.3656 0.5098 0.7788
vn 0.1877 0.5347 0.8240
vn -0.0000 0.5443 0.8389
vn 0.5505 0.3189 0.7715
vn 0.6962 0.2939 0.6549
vn 0.3821 0.3432 0.8580
vn 0.1960 0.3612 0.9117
vn -0.0000 0.3682 0.9298
vn -0.4739 0.7221 0.5040
vn -0.5774 0.6695 0.4673
vn -0.6227 0.5756 0.5301
vn -0.4933 0.6112 0.6190
vn -0.6658 0.4481 0.5966
vn -0.5267 0.4769 0.7037
vn -0.6962 0.2939 0.6549
vn -0.5505 0.3189 0.7715
vn -0.3367 0.7721 0.5389
vn -0.3463 0.6545 0.6721
vn -0.3656 0.5098 0.7788
vn -0.3821 0.3432 0.8580
vn -0.1747 0.8074 0.5636
vn -0.1789 0.6848 0.7064
vn -0.1877 0.5347 0.8240
vn -0.1960 0.3612 0.9117
vn -0.4933 -0.7917 -0.3603
vn -0.6227 -0.6960 -0.3575
vn -0.3463 -0.8566 -0.3826
vn -0.1789 -0.8992 -0.3992
vn -0.0000 -0.9139 -0.4059
vn -0.5267 -0.8250 -0.2050
vn -0.6658 -0.7145 -0.2149
vn -0.3656 -0.9068 -0.2100
vn -0.1877 -0.9578 -0.2178
vn -0.0000 -0.9751 -0.2217
vn -0.5505 -0.8342 -0.0334
vn -0.6962 -0.7161 -0.0501
vn -0.3821 -0.9237 -0.0263
vn -0.1960 -0.9803 -0.0247
vn -0.0000 -0.9997 -0.0250
vn -0.5596 -0.8159 0.1451
vn -0.7071 -0.6962 0.1238
vn -0.3890 -0.9070 0.1613
vn -0.1997 -0.9647 0.1716
vn -0.0000 -0.9845 0.1751
vn 0.6227 -0.6960 -0.3575
vn 0.4933 -0.7917 -0.3603
vn 0.6658 -0.7145 -0.2149
vn 0.5267 -0.8250 -0.2050
vn 0.6962 -0.7161 -0.0501
vn 0.5505 -0.8342 -0.0334
vn 0.7071 -0.6962 0.1238
vn 0.5596 -0.8159 0.1451
vn 0.3463 -0.8566 -0.3826
vn 0.3656 -0.9068 -0.2100
vn 0.3821 -0.9237 -0.0263
vn 0.3890 -0.9070 0.1613
vn 0.1789 -0.8992 -0.3992
vn 0.1877 -0.9578 -0.2178
vn 0.1960 -0.9803 -0.0247
vn 0.1997 -0.9647 0.1716
vn 0.4933 -0.6190 0.6112
vn 0.6227 -0.5301 0.5756
vn 0.3463 -0.6721 0.6545
vn 0.1789 -0.7064 0.6848
vn -0.0000 -0.7179 0.6961
vn 0.5267 -0.7037 0.4769
vn 0.6658 -0.5966 0.4481
vn 0.3656 -0.7788 0.5098
vn 0.1877 -0.8240 0.5347
vn -0.0000 -0.8389 0.5443
vn 0.5505 -0.7715 0.3189
vn 0.6962 -0.6549 0.2939
vn 0.3821 -0.8580 0.3432
vn 0.1960 -0.9117 0.3612
vn -0.0000 -0.9298 0.3682
vn -0.6227 -0.5301 0.5756
vn -0.4933 -0.6190 0.6112
vn -0.6658 -0.5966 0.4481
vn -0.5267 -0.7037 0.4769
vn -0.6962 -0.6549 0.2939
vn -0.5505 -0.7715 0.3189
vn -0.3463 -0.6721 0.6545
vn -0.3656 -0.7788 0.5098
vn -0.3821 -0.8580 0.3432
vn -0.1789 -0.7064 0.6848
vn -0.1877 -0.8240 0.5347
vn -0.1960 -0.9117 0.3612
vn 0.7164 -0.5721 -0.3993
vn 0.7763 -0.4332 -0.4579
vn 0.8154 -0.2726 -0.5107
vn 0.8287 -0.0980 -0.5510
vn 0.7763 -0.5792 -0.2488
vn 0.8560 -0.4239 -0.2959
vn 0.9049 -0.2517 -0.3433
vn 0.9212 -0.0681 -0.3830
vn 0.8154 -0.5733 -0.0798
vn 0.9049 -0.4091 -0.1179
vn 0.9608 -0.2272 -0.1586
vn 0.9799 -0.0350 -0.1966
vn 0.8287 -0.5510 0.0980
vn 0.9212 -0.3830 0.0681
vn 0.9799 -0.1966 0.0350
vn 1.0000 -0.0000 -0.0000
vn 0.6227 0.5301 -0.5756
vn 0.7164 0.3993 -0.5721
vn 0.6658 0.5966 -0.4481
vn 0.7763 0.4579 -0.4332
vn 0.6962 0.6549 -0.2939
vn 0.8154 0.5107 -0.2726
vn 0.7071 0.6962 -0.1238
vn 0.8287 0.5510 -0.0980
vn 0.7763 0.2488 -0.5792
vn 0.8560 0.2959 -0.4239
vn 0.9049 0.3433 -0.2517
vn 0.9212 0.3830 -0.0681
vn 0.8154 0.0798 -0.5733
vn 0.9049 0.1179 -0.4091
vn 0.9608 0.1586 -0.2272
vn 0.9799 0.1966 -0.0350
vn 0.7164 0.5721 0.3993
vn 0.6227 0.6960 0.3575
vn 0.7763 0.4332 0.4579
vn 0.8154 0.2726 0.5107
vn 0.8287 0.0980 0.5510
vn 0.7763 0.5792 0.2488
vn 0.6658 0.7145 0.2149
vn 0.8560 0.4239 0.2959
vn 0.9049 0.2517 0.3433
vn 0.9212 0.0681 0.3830
vn 0.8154 0.5733 0.0798
vn 0.6962 0.7161 0.0501
vn 0.9049 0.4091 0.1179
vn 0.9608 0.2272 0.1586
vn 0.9799 0.0350 0.1966
vn 0.7164 -0.3993 0.5721
vn 0.7763 -0.4579 0.4332
vn 0.8154 -0.5107 0.2726
vn 0.7763 -0.2488 0.5792
vn 0.8560 -0.2959 0.4239
vn 0.9049 -0.3433 0.2517
vn 0.8154 -0.0798 0.5733
vn 0.9049 -0.1179 0.4091
vn 0.9608 -0.1586 0.2272
vn 0.4933 0.6190 -0.6112
vn 0.3463 0.6721 -0.6545
vn 0.1789 0.7064 -0.6848
vn -0.0000 0.7179 -0.6961
vn 0.5267 0.7037 -0.4769
vn 0.3656 0.7788 -0.5098
vn 0.1877 0.8240 -0.5347
vn -0.0000 0.8389 -0.5443
vn 0.5505 0.7715 -0.3189
vn 0.3821 0.8580 -0.3432
vn 0.1960 0.9117 -0.3612
vn -0.0000 0.9298 -0.3682
vn 0.5596 0.8159 -0.1451
vn 0.3890 0.9070 -0.1613
vn 0.1997 0.9647 -0.1716
vn -0.0000 0.9845 -0.1751
vn -0.6227 0.5301 -0.5756
vn -0.4933 0.6190 -0.6112
vn -0.6658 0.5966 -0.4481
vn -0.5267 0.7037 -0.4769
vn -0.6962 0.6549 -0.2939
vn -0.5505 0.7715 -0.3189
vn -0.7071 0.6962 -0.1238
vn -0.5596 0.8159 -0.1451
vn -0.3463 0.6721 -0.6545
vn -0.3656 0.7788 -0.5098
vn -0.3821 0.8580 -0.3432
vn -0.3890 0.9070 -0.1613
vn -0.1789 0.7064 -0.6848
vn -0.1877 0.8240 -0.5347
vn -0.1960 0.9117 -0.3612
vn -0.1997 0.9647 -0.1716
vn -0.4933 0.7917 0.3603
vn -0.6227 0.6960 0.3575
vn -0.3463 0.8566 0.3826
vn -0.1789 0.8992 0.3992
vn -0.0000 0.9139 0.4059
vn -0.5267 0.8250 0.2050
vn -0.6658 0.7145 0.2149
vn -0.3656 0.9068 0.2100
vn -0.1877 0.9578 0.2178
vn -0.0000 0.9751 0.2217
vn -0.5505 0.8342 0.0334
vn -0.6962 0.7161 0.0501
vn -0.3821 0.9237 0.0263
vn -0.1960 0.9803 0.0247
vn -0.0000 0.9997 0.0250
vn 0.4933 0.7917 0.3603
vn 0.5267 0.8250 0.2050
vn 0.5505 0.8342 0.0334
vn 0.3463 0.8566 0.3826
vn 0.3656 0.9068 0.2100
vn 0.3821 0.9237 0.0263
vn 0.1789 0.8992 0.3992
vn 0.1877 0.9578 0.2178
vn 0.1960 0.9803 0.0247
vn -0.7164 0.3993 -0.5721
vn -0.7763 0.2488 -0.5792
vn -0.8154 0.0798 -0.5733
vn -0.8287 -0.0980 -0.5510
vn -0.7763 0.4579 -0.4332
vn -0.8560 0.2959 -0.4239
vn -0.9049 0.1179 -0.4091
vn -0.9212 -0.0681 -0.3830
vn -0.8154 0.5107 -0.2726
vn -0.9049 0.3433 -0.2517
vn -0.9608 0.1586 -0.2272
vn -0.9799 -0.0350 -0.1966
vn -0.8287 0.5510 -0.0980
vn -0.9212 0.3830 -0.0681
vn -0.9799 0.1966 -0.0350
vn -1.0000 -0.0000 -0.0000
vn -0.7164 -0.5721 -0.3993
vn -0.7763 -0.5792 -0.2488
vn -0.8154 -0.5733 -0.0798
vn -0.8287 -0.5510 0.0980
vn -0.7763 -0.4332 -0.4579
vn -0.8560 -0.4239 -0.2959
vn -0.9049 -0.4091 -0.1179
vn -0.9212 -0.3830 0.0681
vn -0.8154 -0.2726 -0.5107
vn -0.9049 -0.2517 -0.3433
vn -0.9608 -0.2272 -0.1586
vn -0.9799 -0.1966 0.0350
vn -0.7164 -0.3993 0.5721
vn -0.7763 -0.2488 0.5792
vn -0.8154 -0.0798 0.5733
vn -0.8287 0.0980 0.5510
vn -0.7763 -0.4579 0.4332
vn -0.8560 -0.2959 0.4239
vn -0.9049 -0.1179 0.4091
vn -0.9212 0.0681 0.3830
vn -0.8154 -0.5107 0.2726
vn -0.9049 -0.3433 0.2517
vn -0.9608 -0.1586 0.2272
vn -0.9799 0.0350 0.1966
vn -0.7164 0.5721 0.3993
vn -0.7763 0.5792 0.2488
vn -0.8154 0.5733 0.0798
vn -0.7763 0.4332 0.4579
vn -0.8560 0.4239 0.2959
vn -0.9049 0.4091 0.1179
vn -0.8154 0.2726 0.5107
vn -0.9049 0.2517 0.3433
vn -0.9608 0.2272 0.1586
vt 0.780252 0.585106
vt 0.785919 0.603973
vt 0.761126 0.604386
vt 0.761463 0.579533
vt 0.791660 0.630071
vt 0.764052 0.631104
vt 0.795529 0.659120
vt 0.766525 0.659835
vt 0.796862 0.689441
vt 0.767566 0.689458
vt 0.734406 0.601515
vt 0.735392 0.573849
vt 0.735544 0.630030
vt 0.736994 0.659520
vt 0.737755 0.689511
vt 0.705673 0.599098
vt 0.706341 0.570062
vt 0.706050 0.628639
vt 0.706754 0.658878
vt 0.707170 0.689573
vt 0.676049 0.598123
vt 0.676020 0.568822
vt 0.676057 0.627936
vt 0.676057 0.658521
vt 0.676056 0.689635
vt 0.785716 0.774614
vt 0.779984 0.793262
vt 0.761263 0.799051
vt 0.761027 0.774422
vt 0.735326 0.804936
vt 0.734359 0.777445
vt 0.706377 0.808958
vt 0.705668 0.780013
vt 0.676091 0.810448
vt 0.676062 0.781148
vt 0.791532 0.748684
vt 0.763993 0.747762
vt 0.735520 0.748980
vt 0.706043 0.750503
vt 0.676055 0.751334
vt 0.795468 0.719727
vt 0.766497 0.719067
vt 0.736982 0.719502
vt 0.706750 0.720270
vt 0.676054 0.720749
vt 0.571859 0.794164
vt 0.566192 0.775297
vt 0.590985 0.774884
vt 0.590648 0.799737
vt 0.560451 0.749199
vt 0.588059 0.748166
vt 0.556582 0.720150
vt 0.585586 0.719435
vt 0.555249 0.689830
vt 0.584545 0.689812
vt 0.617706 0.777755
vt 0.616719 0.805422
vt 0.616567 0.749240
vt 0.615118 0.719750
vt 0.614357 0.689759
vt 0.646438 0.780172
vt 0.645771 0.809208
vt 0.646061 0.750631
vt 0.645357 0.720393
vt 0.644941 0.689697
vt 0.566395 0.604656
vt 0.572127 0.586008
vt 0.590848 0.580219
vt 0.591085 0.604849
vt 0.616785 0.574334
vt 0.617752 0.601826
vt 0.645734 0.570312
vt 0.646443 0.599258
vt 0.560580 0.630586
vt 0.588118 0.631508
vt 0.616592 0.630290
vt 0.646068 0.628767
vt 0.556644 0.659544
vt 0.585614 0.660203
vt 0.615129 0.659768
vt 0.645361 0.659000
vt 0.193462 0.188894
vt 0.212327 0.183217
vt 0.212753 0.208010
vt 0.187900 0.207685
vt 0.238422 0.177462
vt 0.239470 0.205069
vt 0.267469 0.173577
vt 0.268199 0.202581
vt 0.297788 0.172228
vt 0.297821 0.201525
vt 0.209896 0.234731
vt 0.182229 0.233759
vt 0.238411 0.233578
vt 0.267899 0.232113
vt 0.297891 0.231336
vt 0.207495 0.263465
vt 0.178458 0.262813
vt 0.237035 0.263072
vt 0.267273 0.262352
vt 0.297968 0.261920
vt 0.206534 0.293089
vt 0.177234 0.293134
vt 0.236348 0.293066
vt 0.266933 0.293050
vt 0.298047 0.293034
vt 0.382968 0.183329
vt 0.401619 0.189051
vt 0.407418 0.207770
vt 0.382788 0.208019
vt 0.413317 0.233703
vt 0.385826 0.234684
vt 0.417354 0.262650
vt 0.388409 0.263374
vt 0.418860 0.292935
vt 0.389559 0.292980
vt 0.357034 0.177527
vt 0.356127 0.205066
vt 0.357361 0.233539
vt 0.358899 0.263015
vt 0.359746 0.293003
vt 0.328075 0.173607
vt 0.327431 0.202577
vt 0.327881 0.232092
vt 0.328665 0.262324
vt 0.329161 0.293019
vt 0.402631 0.397175
vt 0.383767 0.402852
vt 0.383341 0.378060
vt 0.408194 0.378384
vt 0.357672 0.408607
vt 0.356624 0.381000
vt 0.328625 0.412492
vt 0.327895 0.383488
vt 0.298305 0.413841
vt 0.298273 0.384545
vt 0.386198 0.351338
vt 0.413865 0.352310
vt 0.357683 0.352491
vt 0.328194 0.353956
vt 0.298203 0.354733
vt 0.388599 0.322604
vt 0.417636 0.323256
vt 0.359058 0.322997
vt 0.328821 0.323717
vt 0.298125 0.324149
vt 0.213126 0.402740
vt 0.194475 0.397018
vt 0.188676 0.378300
vt 0.213306 0.378050
vt 0.182777 0.352366
vt 0.210268 0.351385
vt 0.178740 0.323419
vt 0.207685 0.322695
vt 0.239059 0.408542
vt 0.239967 0.381003
vt 0.238733 0.352530
vt 0.237195 0.323054
vt 0.268019 0.412462
vt 0.268663 0.383492
vt 0.268212 0.353977
vt 0.267428 0.323745
vt 0.769396 0.556570
vt 0.793076 0.572442
vt 0.740846 0.546750
vt 0.709146 0.540904
vt 0.676107 0.539159
vt 0.782835 0.533637
vt 0.810927 0.554800
vt 0.749833 0.519086
vt 0.713684 0.510647
vt 0.676147 0.508137
vt 0.798911 0.508978
vt 0.831240 0.534768
vt 0.761182 0.490126
vt 0.719609 0.478763
vt 0.676120 0.475168
vt 0.816743 0.482787
vt 0.853303 0.513019
vt 0.774061 0.459598
vt 0.726395 0.444851
vt 0.675960 0.439861
vt 0.559371 0.573129
vt 0.582879 0.557147
vt 0.541702 0.555251
vt 0.569668 0.534119
vt 0.521661 0.534934
vt 0.553833 0.509317
vt 0.499900 0.512873
vt 0.536160 0.482943
vt 0.611393 0.547177
vt 0.602549 0.519493
vt 0.591331 0.490500
vt 0.578413 0.459897
vt 0.643070 0.541133
vt 0.638630 0.510884
vt 0.632712 0.479012
vt 0.625694 0.445084
vt 0.390928 0.160391
vt 0.414492 0.176289
vt 0.362473 0.150452
vt 0.330837 0.144464
vt 0.297820 0.142565
vt 0.404382 0.137479
vt 0.432360 0.158610
vt 0.371506 0.122843
vt 0.335444 0.114246
vt 0.297936 0.111545
vt 0.420509 0.112863
vt 0.452666 0.138559
vt 0.382983 0.093960
vt 0.341564 0.082420
vt 0.298132 0.078580
vt 0.438451 0.086747
vt 0.474716 0.116786
vt 0.396121 0.063549
vt 0.348735 0.048595
vt 0.298408 0.043279
vt 0.180791 0.176076
vt 0.204401 0.160140
vt 0.163140 0.158235
vt 0.191219 0.137086
vt 0.143098 0.137932
vt 0.175446 0.112237
vt 0.121337 0.115881
vt 0.157902 0.085782
vt 0.233015 0.150284
vt 0.224223 0.122550
vt 0.213144 0.093485
vt 0.200497 0.062771
vt 0.264760 0.144383
vt 0.260390 0.114101
vt 0.254673 0.082178
vt 0.248043 0.048174
vt 0.543461 0.596684
vt 0.533507 0.625134
vt 0.527502 0.656766
vt 0.525586 0.689783
vt 0.520556 0.583218
vt 0.505903 0.616086
vt 0.497287 0.652144
vt 0.494566 0.689650
vt 0.495949 0.567078
vt 0.477026 0.604594
vt 0.465464 0.646007
vt 0.461601 0.689436
vt 0.469842 0.549122
vt 0.446621 0.591439
vt 0.431643 0.638817
vt 0.426301 0.689142
vt 0.559035 0.806829
vt 0.543112 0.783211
vt 0.541184 0.824470
vt 0.520050 0.796380
vt 0.520871 0.844502
vt 0.495193 0.812141
vt 0.498808 0.866251
vt 0.468729 0.829670
vt 0.533270 0.754591
vt 0.505532 0.763368
vt 0.476461 0.774432
vt 0.445741 0.787063
vt 0.527386 0.722844
vt 0.497102 0.727197
vt 0.465176 0.732897
vt 0.431169 0.739509
vt 0.431161 0.386305
vt 0.415302 0.409993
vt 0.440967 0.357749
vt 0.446796 0.326046
vt 0.448523 0.293006
vt 0.454101 0.399731
vt 0.432953 0.427834
vt 0.468634 0.366722
vt 0.477055 0.330569
vt 0.479545 0.293030
vt 0.478769 0.415795
vt 0.452996 0.448137
vt 0.497600 0.378056
vt 0.508942 0.336476
vt 0.512513 0.292986
vt 0.504969 0.433612
vt 0.474756 0.470188
vt 0.528135 0.390918
vt 0.542857 0.343245
vt 0.547821 0.292807
vt 0.430485 0.199788
vt 0.453507 0.186565
vt 0.478301 0.170716
vt 0.504666 0.153030
vt 0.440470 0.228297
vt 0.468150 0.219438
vt 0.497137 0.208205
vt 0.527733 0.195271
vt 0.446532 0.259970
vt 0.476778 0.255515
vt 0.508647 0.249580
vt 0.542572 0.242544
vt 0.582714 0.822700
vt 0.611265 0.832521
vt 0.642965 0.838366
vt 0.676004 0.840111
vt 0.569276 0.845633
vt 0.602278 0.860184
vt 0.638427 0.868623
vt 0.675964 0.871133
vt 0.553200 0.870292
vt 0.590929 0.889144
vt 0.632502 0.900507
vt 0.675991 0.904102
vt 0.535368 0.896483
vt 0.578050 0.919671
vt 0.625715 0.934419
vt 0.676150 0.939409
vt 0.792740 0.806142
vt 0.769232 0.822123
vt 0.810409 0.824019
vt 0.782443 0.845152
vt 0.830449 0.844336
vt 0.798278 0.869954
vt 0.852211 0.866397
vt 0.815951 0.896328
vt 0.740718 0.832093
vt 0.749562 0.859778
vt 0.760780 0.888770
vt 0.773697 0.919373
vt 0.709041 0.838138
vt 0.713481 0.868386
vt 0.719398 0.900259
vt 0.726417 0.934186
vt 0.205166 0.425678
vt 0.181602 0.409781
vt 0.233621 0.435618
vt 0.265257 0.441605
vt 0.298274 0.443504
vt 0.191712 0.448590
vt 0.163734 0.427459
vt 0.224588 0.463226
vt 0.260650 0.471823
vt 0.298158 0.474524
vt 0.175586 0.473206
vt 0.143428 0.447511
vt 0.213111 0.492109
vt 0.254530 0.503649
vt 0.297961 0.507489
vt 0.157643 0.499322
vt 0.121379 0.469284
vt 0.199973 0.522521
vt 0.247359 0.537474
vt 0.297686 0.542790
vt 0.391693 0.425929
vt 0.404874 0.448983
vt 0.420648 0.473833
vt 0.438192 0.500287
vt 0.363079 0.435785
vt 0.371870 0.463519
vt 0.382950 0.492584
vt 0.395597 0.523298
vt 0.331334 0.441686
vt 0.335703 0.471968
vt 0.341421 0.503891
vt 0.348051 0.537895
vt 0.808650 0.782586
vt 0.818605 0.754137
vt 0.824609 0.722504
vt 0.826526 0.689488
vt 0.831555 0.796053
vt 0.846209 0.763185
vt 0.854825 0.727127
vt 0.857545 0.689621
vt 0.856162 0.812192
vt 0.875085 0.774677
vt 0.886647 0.733264
vt 0.890510 0.689834
vt 0.882268 0.830149
vt 0.905490 0.787831
vt 0.920468 0.740453
vt 0.925811 0.690129
vt 0.808999 0.596059
vt 0.832061 0.582890
vt 0.856918 0.567129
vt 0.883382 0.549600
vt 0.818841 0.624679
vt 0.846579 0.615902
vt 0.875650 0.604838
vt 0.906371 0.592207
vt 0.824725 0.656427
vt 0.855009 0.652073
vt 0.886935 0.646373
vt 0.920942 0.639761
vt 0.164933 0.199764
vt 0.155127 0.228320
vt 0.149298 0.260023
vt 0.147571 0.293063
vt 0.141993 0.186338
vt 0.127459 0.219347
vt 0.119039 0.255501
vt 0.116549 0.293040
vt 0.117325 0.170275
vt 0.098493 0.208014
vt 0.087152 0.249593
vt 0.083580 0.293084
vt 0.091125 0.152457
vt 0.067958 0.195151
vt 0.053237 0.242825
vt 0.048273 0.293262
vt 0.165609 0.386282
vt 0.142587 0.399504
vt 0.117793 0.415353
vt 0.091429 0.433040
vt 0.155624 0.357773
vt 0.127944 0.366631
vt 0.098957 0.377864
vt 0.068361 0.390798
vt 0.149562 0.326099
vt 0.119316 0.330555
vt 0.087447 0.336489
vt 0.053522 0.343526
s 1
usemtl golf_ball
f 1/1/1 27/2/2 171/3/3 48/4/4
f 27/2/2 28/5/5 172/6/6 171/3/3
f 28/5/5 29/7/7 173/8/8 172/6/6
f 29/7/7 15/9/9 99/10/10 173/8/8
f 48/4/4 171/3/3 174/11/11 49/12/12
f 171/3/3 172/6/6 175/13/13 174/11/11
f 172/6/6 173/8/8 176/14/14 175/13/13
f 173/8/8 99/10/10 100/15/15 176/14/14
f 49/12/12 174/11/11 177/16/16 50/17/17
f 174/11/11 175/13/13 178/18/18 177/16/16
f 175/13/13 176/14/14 179/19/19 178/18/18
f 176/14/14 100/15/15 101/20/20 179/19/19
f 50/17/17 177/16/16 108/21/21 18/22/22
f 177/16/16 178/18/18 109/23/23 108/21/21
f 178/18/18 179/19/19 110/24/24 109/23/23
f 179/19/19 101/20/20 9/25/25 110/24/24
f 30/26/26 3/27/27 33/28/28 180/29/29
f 180/29/29 33/28/28 34/30/30 181/31/31
f 181/31/31 34/30/30 35/32/32 182/33/33
f 182/33/33 35/32/32 16/34/34 102/35/35
f 31/36/36 30/26/26 180/29/29 183/37/37
f 183/37/37 180/29/29 181/31/31 184/38/38
f 184/38/38 181/31/31 182/33/33 185/39/39
f 185/39/39 182/33/33 102/35/35 103/40/40
f 32/41/41 31/36/36 183/37/37 186/42/42
f 186/42/42 183/37/37 184/38/38 187/43/43
f 187/43/43 184/38/38 185/39/39 188/44/44
f 188/44/44 185/39/39 103/40/40 104/45/45
f 15/9/9 32/41/41 186/42/42 99/10/10
f 99/10/10 186/42/42 187/43/43 100/15/15
f 100/15/15 187/43/43 188/44/44 101/20/20
f 101/20/20 188/44/44 104/45/45 9/25/25
f 4/46/46 39/47/47 189/48/48 36/49/49
f 39/47/47 40/50/50 190/51/51 189/48/48
f 40/50/50 41/52/52 191/53/53 190/51/51
f 41/52/52 17/54/54 105/55/55 191/53/53
f 36/49/49 189/48/48 192/56/56 37/57/57
f 189/48/48 190/51/51 193/58/58 192/56/56
f 190/51/51 191/53/53 194/59/59 193/58/58
f 191/53/53 105/55/55 106/60/60 194/59/59
f 37/57/57 192/56/56 195/61/61 38/62/62
f 192/56/56 193/58/58 196/63/63 195/61/61
f 193/58/58 194/59/59 197/64/64 196/63/63
f 194/59/59 106/60/60 107/65/65 197/64/64
f 38/62/62 195/61/61 102/35/35 16/34/34
f 195/61/61 196/63/63 103/40/40 102/35/35
f 196/63/63 197/64/64 104/45/45 103/40/40
f 197/64/64 107/65/65 9/25/25 104/45/45
f 42/66/66 2/67/67 45/68/68 198/69/69
f 198/69/69 45/68/68 46/70/70 199/71/71
f 199/71/71 46/70/70 47/72/72 200/73/73
f 200/73/73 47/72/72 18/22/22 108/21/21
f 43/74/74 42/66/66 198/69/69 201/75/75
f 201/75/75 198/69/69 199/71/71 202/76/76
f 202/76/76 199/71/71 200/73/73 203/77/77
f 203/77/77 200/73/73 108/21/21 109/23/23
f 44/78/78 43/74/74 201/75/75 204/79/79
f 204/79/79 201/75/75 202/76/76 205/80/80
f 205/80/80 202/76/76 203/77/77 206/81/81
f 206/81/81 203/77/77 109/23/23 110/24/24
f 17/54/54 44/78/78 204/79/79 105/55/55
f 105/55/55 204/79/79 205/80/80 106/60/60
f 106/60/60 205/80/80 206/81/81 107/65/65
f 107/65/65 206/81/81 110/24/24 9/25/25
f 5/82/82 51/83/83 207/84/84 72/85/85
f 51/83/83 52/86/86 208/87/87 207/84/84
f 52/86/86 53/88/88 209/89/89 208/87/87
f 53/88/88 19/90/90 111/91/91 209/89/89
f 72/85/85 207/84/84 210/92/92 73/93/93
f 207/84/84 208/87/87 211/94/94 210/92/92
f 208/87/87 209/89/89 212/95/95 211/94/94
f 209/89/89 111/91/91 112/96/96 212/95/95
f 73/93/93 210/92/92 213/97/97 74/98/98
f 210/92/92 211/94/94 214/99/99 213/97/97
f 211/94/94 212/95/95 215/100/100 214/99/99
f 212/95/95 112/96/96 113/101/101 215/100/100
f 74/98/98 213/97/97 120/102/102 22/103/103
f 213/97/97 214/99/99 121/104/104 120/102/102
f 214/99/99 215/100/100 122/105/105 121/104/104
f 215/100/100 113/101/101 10/106/106 122/105/105
f 54/107/107 6/108/108 57/109/109 216/110/110
f 216/110/110 57/109/109 58/111/111 217/112/112
f 217/112/112 58/111/111 59/113/113 218/114/114
f 218/114/114 59/113/113 20/115/115 114/116/116
f 55/117/117 54/107/107 216/110/110 219/118/118
f 219/118/118 216/110/110 217/112/112 220/119/119
f 220/119/119 217/112/112 218/114/114 221/120/120
f 221/120/120 218/114/114 114/116/116 115/121/121
f 56/122/122 55/117/117 219/118/118 222/123/123
f 222/123/123 219/118/118 220/119/119 223/124/124
f 223/124/124 220/119/119 221/120/120 224/125/125
f 224/125/125 221/120/120 115/121/121 116/126/126
f 19/90/90 56/122/122 222/123/123 111/91/91
f 111/91/91 222/123/123 223/124/124 112/96/96
f 112/96/96 223/124/124 224/125/125 113/101/101
f 113/101/101 224/125/125 116/126/126 10/106/106
f 8/127/127 63/128/128 225/129/129 60/130/130
f 63/128/128 64/131/131 226/132/132 225/129/129
f 64/131/131 65/133/133 227/134/134 226/132/132
f 65/133/133 21/135/135 117/136/136 227/134/134
f 60/130/130 225/129/129 228/137/137 61/138/138
f 225/129/129 226/132/132 229/139/139 228/137/137
f 226/132/132 227/134/134 230/140/140 229/139/139
f 227/134/134 117/136/136 118/141/141 230/140/140
f 61/138/138 228/137/137 231/142/142 62/143/143
f 228/137/137 229/139/139 232/144/144 231/142/142
f 229/139/139 230/140/140 233/145/145 232/144/144
f 230/140/140 118/141/141 119/146/146 233/145/145
f 62/143/143 231/142/142 114/116/116 20/115/115
f 231/142/142 232/144/144 115/121/121 114/116/116
f 232/144/144 233/145/145 116/126/126 115/121/121
f 233/145/145 119/146/146 10/106/106 116/126/126
f 66/147/147 7/148/148 69/149/149 234/150/150
f 234/150/150 69/149/149 70/151/151 235/152/152
f 235/152/152 70/151/151 71/153/153 236/154/154
f 236/154/154 71/153/153 22/103/103 120/102/102
f 67/155/155 66/147/147 234/150/150 237/156/156
f 237/156/156 234/150/150 235/152/152 238/157/157
f 238/157/157 235/152/152 236/154/154 239/158/158
f 239/158/158 236/154/154 120/102/102 121/104/104
f 68/159/159 67/155/155 237/156/156 240/160/160
f 240/160/160 237/156/156 238/157/157 241/161/161
f 241/161/161 238/157/157 239/158/158 242/162/162
f 242/162/162 239/158/158 121/104/104 122/105/105
f 21/135/135 68/159/159 240/160/160 117/136/136
f 117/136/136 240/160/160 241/161/161 118/141/141
f 118/141/141 241/161/161 242/162/162 119/146/146
f 119/146/146 242/162/162 122/105/105 10/106/106
f 1/1/1 48/4/4 243/163/163 84/164/164
f 48/4/4 49/12/12 244/165/165 243/163/163
f 49/12/12 50/17/17 245/166/166 244/165/165
f 50/17/17 18/22/22 123/167/167 245/166/166
f 84/164/164 243/163/163 246/168/168 85/169/169
f 243/163/163 244/165/165 247/170/170 246/168/168
f 244/165/165 245/166/166 248/171/171 247/170/170
f 245/166/166 123/167/167 124/172/172 248/171/171
f 85/169/169 246/168/168 249/173/173 86/174/174
f 246/168/168 247/170/170 250/175/175 249/173/173
f 247/170/170 248/171/171 251/176/176 250/175/175
f 248/171/171 124/172/172 125/177/177 251/176/176
f 86/174/174 249/173/173 132/178/178 24/179/179
f 249/173/173 250/175/175 133/180/180 132/178/178
f 250/175/175 251/176/176 134/181/181 133/180/180
f 251/176/176 125/177/177 11/182/182 134/181/181
f 45/68/68 2/67/67 75/183/183 252/184/184
f 252/184/184 75/183/183 76/185/185 253/186/186
f 253/186/186 76/185/185 77/187/187 254/188/188
f 254/188/188 77/187/187 23/189/189 126/190/190
f 46/70/70 45/68/68 252/184/184 255/191/191
f 255/191/191 252/184/184 253/186/186 256/192/192
f 256/192/192 253/186/186 254/188/188 257/193/193
f 257/193/193 254/188/188 126/190/190 127/194/194
f 47/72/72 46/70/70 255/191/191 258/195/195
f 258/195/195 255/191/191 256/192/192 259/196/196
f 259/196/196 256/192/192 257/193/193 260/197/197
f 260/197/197 257/193/193 127/194/194 128/198/198
f 18/22/22 47/72/72 258/195/195 123/167/167
f 123/167/167 258/195/195 259/196/196 124/172/172
f 124/172/172 259/196/196 260/197/197 125/177/177
f 125/177/177 260/197/197 128/198/198 11/182/182
f 6/108/108 54/107/107 261/199/199 78/200/200
f 54/107/107 55/117/117 262/201/201 261/199/199
f 55/117/117 56/122/122 263/202/202 262/201/201
f 56/122/122 19/90/90 129/203/203 263/202/202
f 78/200/200 261/199/199 264/204/204 79/205/205
f 261/199/199 262/201/201 265/206/206 264/204/204
f 262/201/201 263/202/202 266/207/207 265/206/206
f 263/202/202 129/203/203 130/208/208 266/207/207
f 79/205/205 264/204/204 267/209/209 80/210/210
f 264/204/204 265/206/206 268/211/211 267/209/209
f 265/206/206 266/207/207 269/212/212 268/211/211
f 266/207/207 130/208/208 131/213/213 269/212/212
f 80/210/210 267/209/209 126/214/190 23/215/189
f 267/209/209 268/211/211 127/216/194 126/214/190
f 268/211/211 269/212/212 128/217/198 127/216/194
f 269/212/212 131/213/213 11/218/182 128/217/198
f 51/83/83 5/82/82 81/219/214 270/220/215
f 270/220/215 81/219/214 82/221/216 271/222/217
f 271/222/217 82/221/216 83/223/218 272/224/219
f 272/224/219 83/223/218 24/225/179 132/226/178
f 52/86/86 51/83/83 270/220/215 273/227/220
f 273/227/220 270/220/215 271/222/217 274/228/221
f 274/228/221 271/222/217 272/224/219 275/229/222
f 275/229/222 272/224/219 132/226/178 133/230/180
f 53/88/88 52/86/86 273/227/220 276/231/223
f 276/231/223 273/227/220 274/228/221 277/232/224
f 277/232/224 274/228/221 275/229/222 278/233/225
f 278/233/225 275/229/222 133/230/180 134/234/181
f 19/90/90 53/88/88 276/231/223 129/203/203
f 129/203/203 276/231/223 277/232/224 130/208/208
f 130/208/208 277/232/224 278/233/225 131/213/213
f 131/213/213 278/233/225 134/234/181 11/218/182
f 2/67/67 42/66/66 279/235/226 75/183/183
f 42/66/66 43/74/74 280/236/227 279/235/226
f 43/74/74 44/78/78 281/237/228 280/236/227
f 44/78/78 17/54/54 135/238/229 281/237/228
f 75/183/183 279/235/226 282/239/230 76/185/185
f 279/235/226 280/236/227 283/240/231 282/239/230
f 280/236/227 281/237/228 284/241/232 283/240/231
f 281/237/228 135/238/229 136/242/233 284/241/232
f 76/185/185 282/239/230 285/243/234 77/187/187
f 282/239/230 283/240/231 286/244/235 285/243/234
f 283/240/231 284/241/232 287/245/236 286/244/235
f 284/241/232 136/242/233 137/246/237 287/245/236
f 77/187/187 285/243/234 144/247/238 23/189/189
f 285/243/234 286/244/235 145/248/239 144/247/238
f 286/244/235 287/245/236 146/249/240 145/248/239
f 287/245/236 137/246/237 12/250/241 146/249/240
f 39/47/47 4/46/46 87/251/242 288/252/243
f 288/252/243 87/251/242 88/253/244 289/254/245
f 289/254/245 88/253/244 89/255/246 290/256/247
f 290/256/247 89/255/246 25/257/248 138/258/249
f 40/50/50 39/47/47 288/252/243 291/259/250
f 291/259/250 288/252/243 289/254/245 292/260/251
f 292/260/251 289/254/245 290/256/247 293/261/252
f 293/261/252 290/256/247 138/258/249 139/262/253
f 41/52/52 40/50/50 291/259/250 294/263/254
f 294/263/254 291/259/250 292/260/251 295/264/255
f 295/264/255 292/260/251 293/261/252 296/265/256
f 296/265/256 293/261/252 139/262/253 140/266/257
f 17/54/54 41/52/52 294/263/254 135/238/229
f 135/238/229 294/263/254 295/264/255 136/242/233
f 136/242/233 295/264/255 296/265/256 137/246/237
f 137/246/237 296/265/256 140/266/257 12/250/241
f 8/127/127 60/130/130 297/267/258 90/268/259
f 60/130/130 61/138/138 298/269/260 297/267/258
f 61/138/138 62/143/143 299/270/261 298/269/260
f 62/143/143 20/115/115 141/271/262 299/270/261
f 90/268/259 297/267/258 300/272/263 91/273/264
f 297/267/258 298/269/260 301/274/265 300/272/263
f 298/269/260 299/270/261 302/275/266 301/274/265
f 299/270/261 141/271/262 142/276/267 302/275/266
f 91/273/264 300/272/263 303/277/268 92/278/269
f 300/272/263 301/274/265 304/279/270 303/277/268
f 301/274/265 302/275/266 305/280/271 304/279/270
f 302/275/266 142/276/267 143/281/272 305/280/271
f 92/278/269 303/277/268 138/282/249 25/283/248
f 303/277/268 304/279/270 139/284/253 138/282/249
f 304/279/270 305/280/271 140/285/257 139/284/253
f 305/280/271 143/281/272 12/286/241 140/285/257
f 57/109/109 6/108/108 78/200/200 306/287/273
f 306/287/273 78/200/200 79/205/205 307/288/274
f 307/288/274 79/205/205 80/210/210 308/289/275
f 308/289/275 80/210/210 23/215/189 144/290/238
f 58/111/111 57/109/109 306/287/273 309/291/276
f 309/291/276 306/287/273 307/288/274 310/292/277
f 310/292/277 307/288/274 308/289/275 311/293/278
f 311/293/278 308/289/275 144/290/238 145/294/239
f 59/113/113 58/111/111 309/291/276 312/295/279
f 312/295/279 309/291/276 310/292/277 313/296/280
f 313/296/280 310/292/277 311/293/278 314/297/281
f 314/297/281 311/293/278 145/294/239 146/298/240
f 20/115/115 59/113/113 312/295/279 141/271/262
f 141/271/262 312/295/279 313/296/280 142/276/267
f 142/276/267 313/296/280 314/297/281 143/281/272
f 143/281/272 314/297/281 146/298/240 12/286/241
f 4/46/46 36/49/49 315/299/282 87/251/242
f 36/49/49 37/57/57 316/300/283 315/299/282
f 37/57/57 38/62/62 317/301/284 316/300/283
f 38/62/62 16/34/34 147/302/285 317/301/284
f 87/251/242 315/299/282 318/303/286 88/253/244
f 315/299/282 316/300/283 319/304/287 318/303/286
f 316/300/283 317/301/284 320/305/288 319/304/287
f 317/301/284 147/302/285 148/306/289 320/305/288
f 88/253/244 318/303/286 321/307/290 89/255/246
f 318/303/286 319/304/287 322/308/291 321/307/290
f 319/304/287 320/305/288 323/309/292 322/308/291
f 320/305/288 148/306/289 149/310/293 323/309/292
f 89/255/246 321/307/290 156/311/294 25/257/248
f 321/307/290 322/308/291 157/312/295 156/311/294
f 322/308/291 323/309/292 158/313/296 157/312/295
f 323/309/292 149/310/293 13/314/297 158/313/296
f 33/28/28 3/27/27 93/315/298 324/316/299
f 324/316/299 93/315/298 94/317/300 325/318/301
f 325/318/301 94/317/300 95/319/302 326/320/303
f 326/320/303 95/319/302 26/321/304 150/322/305
f 34/30/30 33/28/28 324/316/299 327/323/306
f 327/323/306 324/316/299 325/318/301 328/324/307
f 328/324/307 325/318/301 326/320/303 329/325/308
f 329/325/308 326/320/303 150/322/305 151/326/309
f 35/32/32 34/30/30 327/323/306 330/327/310
f 330/327/310 327/323/306 328/324/307 331/328/311
f 331/328/311 328/324/307 329/325/308 332/329/312
f 332/329/312 329/325/308 151/326/309 152/330/313
f 16/34/34 35/32/32 330/327/310 147/302/285
f 147/302/285 330/327/310 331/328/311 148/306/289
f 148/306/289 331/328/311 332/329/312 149/310/293
f 149/310/293 332/329/312 152/330/313 13/314/297
f 7/148/148 66/147/147 333/331/314 96/332/315
f 66/147/147 67/155/155 334/333/316 333/331/314
f 67/155/155 68/159/159 335/334/317 334/333/316
f 68/159/159 21/135/135 153/335/318 335/334/317
f 96/332/315 333/331/314 336/336/319 97/337/320
f 333/331/314 334/333/316 337/338/321 336/336/319
f 334/333/316 335/334/317 338/339/322 337/338/321
f 335/334/317 153/335/318 154/340/323 338/339/322
f 97/337/320 336/336/319 339/341/324 98/342/325
f 336/336/319 337/338/321 340/343/326 339/341/324
f 337/338/321 338/339/322 341/344/327 340/343/326
f 338/339/322 154/340/323 155/345/328 341/344/327
f 98/342/325 339/341/324 150/346/305 26/347/304
f 339/341/324 340/343/326 151/348/309 150/346/305
f 340/343/326 341/344/327 152/349/313 151/348/309
f 341/344/327 155/345/328 13/350/297 152/349/313
f 63/128/128 8/127/127 90/268/259 342/351/329
f 342/351/329 90/268/259 91/273/264 343/352/330
f 343/352/330 91/273/264 92/278/269 344/353/331
f 344/353/331 92/278/269 25/283/248 156/354/294
f 64/131/131 63/128/128 342/351/329 345/355/332
f 345/355/332 342/351/329 343/352/330 346/356/333
f 346/356/333 343/352/330 344/353/331 347/357/334
f 347/357/334 344/353/331 156/354/294 157/358/295
f 65/133/133 64/131/131 345/355/332 348/359/335
f 348/359/335 345/355/332 346/356/333 349/360/336
f 349/360/336 346/356/333 347/357/334 350/361/337
f 350/361/337 347/357/334 157/358/295 158/362/296
f 21/135/135 65/133/133 348/359/335 153/335/318
f 153/335/318 348/359/335 349/360/336 154/340/323
f 154/340/323 349/360/336 350/361/337 155/345/328
f 155/345/328 350/361/337 158/362/296 13/350/297
f 3/27/27 30/26/26 351/363/338 93/315/298
f 30/26/26 31/36/36 352/364/339 351/363/338
f 31/36/36 32/41/41 353/365/340 352/364/339
f 32/41/41 15/9/9 159/366/341 353/365/340
f 93/315/298 351/363/338 354/367/342 94/317/300
f 351/363/338 352/364/339 355/368/343 354/367/342
f 352/364/339 353/365/340 356/369/344 355/368/343
f 353/365/340 159/366/341 160/370/345 356/369/344
f 94/317/300 354/367/342 357/371/346 95/319/302
f 354/367/342 355/368/343 358/372/347 357/371/346
f 355/368/343 356/369/344 359/373/348 358/372/347
f 356/369/344 160/370/345 161/374/349 359/373/348
f 95/319/302 357/371/346 168/375/350 26/321/304
f 357/371/346 358/372/347 169/376/351 168/375/350
f 358/372/347 359/373/348 170/377/352 169/376/351
f 359/373/348 161/374/349 14/378/353 170/377/352
f 27/2/2 1/1/1 84/164/164 360/379/354
f 360/379/354 84/164/164 85/169/169 361/380/355
f 361/380/355 85/169/169 86/174/174 362/381/356
f 362/381/356 86/174/174 24/179/179 162/382/357
f 28/5/5 27/2/2 360/379/354 363/383/358
f 363/383/358 360/379/354 361/380/355 364/384/359
f 364/384/359 361/380/355 362/381/356 365/385/360
f 365/385/360 362/381/356 162/382/357 163/386/361
f 29/7/7 28/5/5 363/383/358 366/387/362
f 366/387/362 363/383/358 364/384/359 367/388/363
f 367/388/363 364/384/359 365/385/360 368/389/364
f 368/389/364 365/385/360 163/386/361 164/390/365
f 15/9/9 29/7/7 366/387/362 159/366/341
f 159/366/341 366/387/362 367/388/363 160/370/345
f 160/370/345 367/388/363 368/389/364 161/374/349
f 161/374/349 368/389/364 164/390/365 14/378/353
f 5/82/82 72/85/85 369/391/366 81/219/214
f 72/85/85 73/93/93 370/392/367 369/391/366
f 73/93/93 74/98/98 371/393/368 370/392/367
f 74/98/98 22/103/103 165/394/369 371/393/368
f 81/219/214 369/391/366 372/395/370 82/221/216
f 369/391/366 370/392/367 373/396/371 372/395/370
f 370/392/367 371/393/368 374/397/372 373/396/371
f 371/393/368 165/394/369 166/398/373 374/397/372
f 82/221/216 372/395/370 375/399/374 83/223/218
f 372/395/370 373/396/371 376/400/375 375/399/374
f 373/396/371 374/397/372 377/401/376 376/400/375
f 374/397/372 166/398/373 167/402/377 377/401/376
f 83/223/218 375/399/374 162/403/357 24/225/179
f 375/399/374 376/400/375 163/404/361 162/403/357
f 376/400/375 377/401/376 164/405/365 163/404/361
f 377/401/376 167/402/377 14/406/353 164/405/365
f 69/149/149 7/148/148 96/332/315 378/407/378
f 378/407/378 96/332/315 97/337/320 379/408/379
f 379/408/379 97/337/320 98/342/325 380/409/380
f 380/409/380 98/342/325 26/347/304 168/410/350
f 70/151/151 69/149/149 378/407/378 381/411/381
f 381/411/381 378/407/378 379/408/379 382/412/382
f 382/412/382 379/408/379 380/409/380 383/413/383
f 383/413/383 380/409/380 168/410/350 169/414/351
f 71/153/153 70/151/151 381/411/381 384/415/384
f 384/415/384 381/411/381 382/412/382 385/416/385
f 385/416/385 382/412/382 383/413/383 386/417/386
f 386/417/386 383/413/383 169/414/351 170/418/352
f 22/103/103 71/153/153 384/415/384 165/394/369
f 165/394/369 384/415/384 385/416/385 166/398/373
f 166/398/373 385/416/385 386/417/386 167/402/377
f 167/402/377 386/417/386 170/418/352 14/406/353
